<svg xmlns="http://www.w3.org/2000/svg" xmlns:xlink="http://www.w3.org/1999/xlink" width="500" zoomAndPan="magnify" viewBox="0 0 375 374.999991" height="500" preserveAspectRatio="xMidYMid meet" version="1.0"><defs><clipPath id="82779b6020"><path d="M 54 6 L 357 6 L 357 356 L 54 356 Z M 54 6 " clip-rule="nonzero"/></clipPath><clipPath id="3559dc1fd2"><path d="M 155.128906 -5.980469 L 368.621094 76.765625 L 255.492188 368.648438 L 42 285.902344 Z M 155.128906 -5.980469 " clip-rule="nonzero"/></clipPath><clipPath id="a9a8b8eaa7"><path d="M 193.589844 8.925781 L 330.15625 61.859375 C 351.398438 70.089844 361.945312 93.984375 353.714844 115.226562 L 270.710938 329.378906 C 262.480469 350.621094 238.585938 361.167969 217.34375 352.933594 L 80.777344 300.003906 C 59.535156 291.769531 48.988281 267.875 57.222656 246.632812 L 140.222656 32.484375 C 148.453125 11.242188 172.347656 0.695312 193.589844 8.925781 Z M 193.589844 8.925781 " clip-rule="nonzero"/></clipPath><clipPath id="d3a6dcd044"><path d="M 54 6 L 357 6 L 357 356 L 54 356 Z M 54 6 " clip-rule="nonzero"/></clipPath><clipPath id="db15a9502b"><path d="M 155.128906 -5.980469 L 368.417969 76.6875 L 255.667969 367.601562 L 42.375 284.933594 Z M 155.128906 -5.980469 " clip-rule="nonzero"/></clipPath><clipPath id="46d8d9f063"><path d="M 155.128906 -5.980469 L 372.921875 78.433594 L 259.222656 371.785156 L 41.433594 287.375 Z M 155.128906 -5.980469 " clip-rule="nonzero"/></clipPath><clipPath id="dc86063204"><path d="M 193.589844 8.925781 L 330.152344 61.855469 C 351.394531 70.089844 361.941406 93.984375 353.707031 115.222656 L 270.710938 329.367188 C 262.476562 350.609375 238.582031 361.15625 217.34375 352.921875 L 80.777344 299.996094 C 59.539062 291.761719 48.992188 267.867188 57.226562 246.625 L 140.222656 32.480469 C 148.457031 11.242188 172.351562 0.695312 193.589844 8.925781 Z M 193.589844 8.925781 " clip-rule="nonzero"/></clipPath><clipPath id="ed05a3fb1f"><path d="M 14.714844 55.667969 L 243.679688 55.667969 L 243.679688 368 L 14.714844 368 Z M 14.714844 55.667969 " clip-rule="nonzero"/></clipPath><clipPath id="d24bceb38c"><path d="M 55.214844 55.667969 L 203.179688 55.667969 C 225.546875 55.667969 243.679688 73.800781 243.679688 96.167969 L 243.679688 327.339844 C 243.679688 349.707031 225.546875 367.839844 203.179688 367.839844 L 55.214844 367.839844 C 32.84375 367.839844 14.714844 349.707031 14.714844 327.339844 L 14.714844 96.167969 C 14.714844 73.800781 32.84375 55.667969 55.214844 55.667969 Z M 55.214844 55.667969 " clip-rule="nonzero"/></clipPath><clipPath id="89b8252a1c"><path d="M 14.714844 55.667969 L 243.464844 55.667969 L 243.464844 367.667969 L 14.714844 367.667969 Z M 14.714844 55.667969 " clip-rule="nonzero"/></clipPath><clipPath id="01dd40f45d"><path d="M 55.214844 55.667969 L 203.175781 55.667969 C 225.539062 55.667969 243.671875 73.800781 243.671875 96.164062 L 243.671875 327.332031 C 243.671875 349.699219 225.539062 367.832031 203.175781 367.832031 L 55.214844 367.832031 C 32.847656 367.832031 14.714844 349.699219 14.714844 327.332031 L 14.714844 96.164062 C 14.714844 73.800781 32.847656 55.667969 55.214844 55.667969 Z M 55.214844 55.667969 " clip-rule="nonzero"/></clipPath><clipPath id="3f2cc1e8c2"><path d="M 74.738281 100 L 183.488281 100 L 183.488281 325.550781 L 74.738281 325.550781 Z M 74.738281 100 " clip-rule="nonzero"/></clipPath><clipPath id="870f6cee83"><path d="M 74.738281 100 L 124 100 L 124 325.550781 L 74.738281 325.550781 Z M 74.738281 100 " clip-rule="nonzero"/></clipPath></defs><g clip-path="url(#82779b6020)"><g clip-path="url(#3559dc1fd2)"><g clip-path="url(#a9a8b8eaa7)"><path fill="#e6762d" d="M 155.128906 -5.980469 L 368.621094 76.765625 L 255.816406 367.8125 L 42.324219 285.070312 Z M 155.128906 -5.980469 " fill-opacity="1" fill-rule="nonzero"/></g></g></g><g clip-path="url(#d3a6dcd044)"><g clip-path="url(#db15a9502b)"><g clip-path="url(#46d8d9f063)"><g clip-path="url(#dc86063204)"><path stroke-linecap="butt" transform="matrix(0.699312, 0.27104, -0.27104, 0.699312, 155.130052, -5.979217)" fill="none" stroke-linejoin="miter" d="M 54.996 -0.00158241 L 250.277559 -0.000703894 C 280.65403 0.000930221 305.279681 24.625132 305.276165 54.996746 L 305.278875 361.217426 C 305.277241 391.593896 280.653039 416.219548 250.281425 416.216031 L 54.996892 416.221891 C 24.625278 416.218375 -0.000373538 391.594173 0.00126058 361.217703 L -0.00144997 54.997023 C 0.00206637 24.625409 24.626268 -0.000242416 54.996 -0.00158241 Z M 54.996 -0.00158241 " stroke="#000000" stroke-width="16" stroke-opacity="1" stroke-miterlimit="4"/></g></g></g></g><g clip-path="url(#ed05a3fb1f)"><g clip-path="url(#d24bceb38c)"><path fill="#ff8c42" d="M 14.714844 55.667969 L 243.679688 55.667969 L 243.679688 367.8125 L 14.714844 367.8125 Z M 14.714844 55.667969 " fill-opacity="1" fill-rule="nonzero"/></g></g><g clip-path="url(#89b8252a1c)"><g clip-path="url(#01dd40f45d)"><path stroke-linecap="butt" transform="matrix(0.75, 0, 0, 0.75, 14.714279, 55.667)" fill="none" stroke-linejoin="miter" d="M 54.000759 0.00129121 L 251.282035 0.00129121 C 281.099747 0.00129121 305.276834 24.178378 305.276834 53.99609 L 305.276834 362.220088 C 305.276834 392.043009 281.099747 416.220095 251.282035 416.220095 L 54.000759 416.220095 C 24.177839 416.220095 0.000752395 392.043009 0.000752395 362.220088 L 0.000752395 53.99609 C 0.000752395 24.178378 24.177839 0.00129121 54.000759 0.00129121 Z M 54.000759 0.00129121 " stroke="#000000" stroke-width="16" stroke-opacity="1" stroke-miterlimit="4"/></g></g><g clip-path="url(#3f2cc1e8c2)"><path fill="#fedd2b" d="M 159.433594 100.632812 L 136.347656 162.414062 L 183.492188 155.1875 L 74.746094 325.554688 L 115.164062 213.09375 L 81.484375 217.4375 L 111.316406 100.632812 Z M 159.433594 100.632812 " fill-opacity="1" fill-rule="nonzero"/></g><g clip-path="url(#870f6cee83)"><path fill="#f8cf29" d="M 111.316406 100.632812 L 119.980469 100.632812 L 81.484375 217.4375 Z M 74.746094 325.554688 L 123.828125 213.09375 L 115.164062 213.09375 Z M 74.746094 325.554688 " fill-opacity="1" fill-rule="nonzero"/></g></svg>